<?xml version="1.0" standalone="no"?>
<!DOCTYPE svg PUBLIC "-//W3C//DTD SVG 20010904//EN"
 "http://www.w3.org/TR/2001/REC-SVG-20010904/DTD/svg10.dtd">
<svg version="1.0" xmlns="http://www.w3.org/2000/svg"
 width="48.000000pt" height="48.000000pt" viewBox="0 0 48.000000 48.000000"
 preserveAspectRatio="xMidYMid meet">

<g transform="translate(0.000000,48.000000) scale(0.100000,-0.100000)"
fill="#000000" stroke="none">
<path d="M172 429 c-48 -14 -109 -80 -123 -131 -23 -89 12 -182 88 -229 57
-36 154 -34 210 3 62 41 88 90 88 168 0 77 -26 127 -85 166 -43 29 -125 39
-178 23z m156 -56 c51 -38 67 -70 67 -133 0 -74 -11 -87 -54 -65 -50 25 -119
29 -171 10 -68 -25 -74 -24 -84 16 -18 74 20 155 89 185 40 19 120 12 153 -13z
m-10 -229 l37 -15 -23 -19 c-46 -38 -138 -38 -184 0 l-23 19 35 15 c46 20 111
20 158 0z"/>
<path d="M196 344 c-20 -20 -20 -68 0 -88 20 -20 68 -20 88 0 20 20 20 68 0
88 -8 9 -28 16 -44 16 -16 0 -36 -7 -44 -16z m64 -44 c0 -13 -7 -20 -20 -20
-13 0 -20 7 -20 20 0 13 7 20 20 20 13 0 20 -7 20 -20z"/>
</g>
</svg>
