<?xml version="1.0" standalone="no"?>
<!DOCTYPE svg PUBLIC "-//W3C//DTD SVG 20010904//EN"
 "http://www.w3.org/TR/2001/REC-SVG-20010904/DTD/svg10.dtd">
<svg version="1.0" xmlns="http://www.w3.org/2000/svg"
 width="48.000000pt" height="48.000000pt" viewBox="0 0 48.000000 48.000000"
 preserveAspectRatio="xMidYMid meet">

<g transform="translate(0.000000,48.000000) scale(0.100000,-0.100000)"
fill="#000000" stroke="none">
<path d="M107 373 c-16 -15 -4 -40 40 -85 l47 -48 -48 -49 c-50 -50 -58 -83
-22 -89 12 -3 36 14 67 44 l49 48 49 -48 c50 -50 83 -58 89 -22 3 12 -14 36
-44 67 l-48 49 48 49 c30 31 47 55 44 67 -6 36 -39 28 -89 -22 l-49 -48 -48
47 c-45 44 -70 56 -85 40z"/>
</g>
</svg>
