<?xml version="1.0" standalone="no"?>
<!DOCTYPE svg PUBLIC "-//W3C//DTD SVG 20010904//EN"
 "http://www.w3.org/TR/2001/REC-SVG-20010904/DTD/svg10.dtd">
<svg version="1.0" xmlns="http://www.w3.org/2000/svg"
 width="48.000000pt" height="48.000000pt" viewBox="0 0 48.000000 48.000000"
 preserveAspectRatio="xMidYMid meet">

<g transform="translate(0.000000,48.000000) scale(0.100000,-0.100000)"
fill="#000000" stroke="none">
<path d="M130 415 c-10 -13 6 -15 127 -17 l138 -3 3 -138 c2 -121 4 -137 17
-127 12 10 15 40 15 140 0 165 5 160 -162 160 -98 0 -128 -3 -138 -15z"/>
<path d="M67 352 c-14 -15 -17 -41 -17 -144 0 -163 -5 -158 162 -158 163 0
158 -5 158 162 0 163 5 158 -162 158 -108 0 -127 -2 -141 -18z m268 -142 l0
-125 -125 0 -125 0 -3 114 c-1 63 0 121 2 128 4 11 33 13 128 11 l123 -3 0
-125z"/>
</g>
</svg>
